# xmcd
#
# Track frame offsets:
#	150
#	14430
#	26708
#	37173
#	49676
#	65004
#	79046
#	91645
#	104785
#	125799
#	140456
#	153310
#	165553
#
# Disc length: 2329 seconds
# Revision: 0
# Processed by: cddbd v1.5.2PL0 Copyright (c) Steve Scherf et al.
# Submitted via: dBpowerAMP V12.0
#
DISCID=af09170d
DTITLE=Nat King Cole Trio - I'm Lost
DYEAR=1997
DGENRE=Jazz
TTITLE0=I'm Lost
TTITLE1=Let's Spring One
TTITLE2=Beautiful Moons
TTITLE3=Got A Penny
TTITLE4=All For You
TTITLE5=Fine Sweet And Tasty
TTITLE6=My Lips Remember Your Kisses
TTITLE7=Vom Vim Veedle
TTITLE8=Bugle Call Rag
TTITLE9=Let's Pretend
TTITLE10=Melancholy Madeline
TTITLE11=Pitchin' Up The Boogie
TTITLE12=Honky Tonk Town
EXTD=
EXTT0=
EXTT1=
EXTT2=
EXTT3=
EXTT4=
EXTT5=
EXTT6=
EXTT7=
EXTT8=
EXTT9=
EXTT10=
EXTT11=
EXTT12=
PLAYORDER=
